<svg id="svg" version="1.1" xmlns="http://www.w3.org/2000/svg" xmlns:xlink="http://www.w3.org/1999/xlink" width="400" height="130" viewBox="0, 0, 400,130"><g id="svgg"><path id="path0" d="M128.498 50.002 C 128.044 50.456,128.046 91.383,128.500 91.670 C 128.842 91.887,134.271 91.878,134.678 91.661 C 134.992 91.493,135.000 91.179,135.000 79.244 C 135.000 68.542,135.031 67.000,135.247 67.000 C 135.383 67.000,135.540 67.206,135.597 67.458 C 135.654 67.710,135.776 68.217,135.870 68.583 C 135.963 68.950,136.174 69.887,136.340 70.667 C 136.714 72.431,137.270 74.976,137.686 76.833 C 137.861 77.612,138.149 78.925,138.326 79.750 C 139.100 83.349,139.498 85.186,139.825 86.667 C 140.017 87.537,140.314 88.910,140.485 89.716 C 140.922 91.782,140.987 91.833,143.167 91.833 C 145.351 91.833,145.428 91.772,145.848 89.708 C 146.011 88.906,146.341 87.350,146.581 86.250 C 146.821 85.150,147.163 83.575,147.340 82.750 C 147.518 81.925,147.806 80.612,147.980 79.833 C 148.155 79.054,148.462 77.667,148.662 76.750 C 148.862 75.833,149.174 74.408,149.355 73.583 C 149.536 72.758,149.833 71.371,150.015 70.500 C 150.197 69.629,150.412 68.692,150.492 68.417 C 150.571 68.142,150.682 67.710,150.738 67.458 C 150.794 67.206,150.951 67.000,151.087 67.000 C 151.302 67.000,151.333 68.542,151.333 79.244 C 151.333 91.179,151.341 91.493,151.656 91.661 C 152.218 91.962,157.591 91.885,157.905 91.571 C 158.212 91.264,158.310 50.485,158.004 50.000 C 157.872 49.792,157.189 49.742,153.907 49.700 C 149.355 49.641,149.322 49.650,149.043 50.946 C 148.572 53.130,147.965 55.903,147.663 57.250 C 147.161 59.489,146.713 61.495,146.353 63.126 C 145.735 65.919,145.325 67.757,145.095 68.750 C 144.969 69.300,144.701 70.500,144.502 71.417 C 144.302 72.333,143.992 73.721,143.812 74.500 C 143.633 75.279,143.451 76.085,143.407 76.292 C 143.278 76.897,143.057 76.725,142.869 75.875 C 142.773 75.440,142.543 74.408,142.357 73.583 C 141.787 71.050,141.179 68.323,140.833 66.750 C 140.396 64.763,139.271 59.728,138.022 54.167 C 137.847 53.387,137.582 52.188,137.433 51.500 C 137.023 49.605,137.184 49.667,132.648 49.667 C 129.048 49.667,128.814 49.686,128.498 50.002 M250.250 49.852 C 247.196 50.294,245.275 52.136,244.740 55.134 C 244.441 56.812,244.393 84.327,244.686 86.218 C 245.365 90.603,247.649 91.833,255.108 91.833 C 263.933 91.833,265.557 90.292,265.575 81.902 C 265.585 77.431,265.923 77.833,262.167 77.833 C 258.473 77.833,258.775 77.544,258.667 81.188 C 258.555 84.959,258.611 84.894,255.396 84.972 C 251.197 85.073,251.583 86.514,251.583 70.743 C 251.583 55.194,251.255 56.500,255.167 56.500 C 258.413 56.500,258.667 56.788,258.667 60.484 C 258.667 61.764,258.740 63.004,258.829 63.239 L 258.992 63.667 262.075 63.667 L 265.159 63.667 265.435 63.245 C 265.790 62.704,265.670 56.579,265.270 54.833 C 264.615 51.967,262.635 50.215,259.624 49.838 C 258.009 49.635,251.681 49.645,250.250 49.852 M163.867 55.200 C 163.576 55.490,163.576 91.343,163.867 91.633 C 164.018 91.785,166.542 91.833,174.204 91.833 L 184.342 91.833 184.504 91.406 C 184.594 91.171,184.667 89.826,184.667 88.417 C 184.667 87.008,184.594 85.663,184.504 85.428 L 184.342 85.000 177.504 85.000 L 170.667 85.000 170.667 81.101 C 170.667 77.700,170.700 77.189,170.930 77.101 C 171.075 77.046,173.423 77.000,176.147 77.000 C 179.777 77.000,181.153 76.947,181.300 76.800 C 181.590 76.510,181.582 70.573,181.292 70.385 C 181.177 70.311,178.758 70.212,175.917 70.167 L 170.750 70.083 170.750 66.000 L 170.750 61.917 177.528 61.833 C 181.256 61.788,184.368 61.688,184.445 61.612 C 184.655 61.401,184.717 55.987,184.515 55.455 L 184.342 55.000 174.204 55.000 C 166.542 55.000,164.018 55.049,163.867 55.200 M189.173 55.322 C 188.955 55.729,188.947 61.157,189.163 61.500 C 189.293 61.706,189.912 61.759,192.660 61.801 L 196.000 61.853 196.000 76.521 C 196.000 86.313,196.057 91.296,196.173 91.511 C 196.355 91.853,202.283 92.019,202.791 91.697 C 202.953 91.593,203.007 88.346,203.041 76.741 L 203.083 61.917 206.333 61.833 C 208.121 61.788,209.677 61.689,209.792 61.615 C 210.082 61.427,210.090 55.490,209.800 55.200 C 209.405 54.805,189.386 54.924,189.173 55.322 M222.439 55.375 C 222.310 55.581,222.114 56.163,222.003 56.667 C 221.892 57.171,221.697 57.958,221.569 58.417 C 221.440 58.875,220.622 62.175,219.749 65.750 C 218.877 69.325,218.088 72.512,217.996 72.833 C 217.904 73.154,217.717 73.885,217.581 74.458 C 217.445 75.031,217.222 75.969,217.086 76.542 C 216.950 77.115,216.726 77.996,216.588 78.500 C 215.732 81.623,213.488 91.083,213.531 91.386 C 213.582 91.743,213.642 91.751,216.562 91.796 C 219.794 91.845,219.912 91.817,220.083 90.947 C 220.140 90.655,220.292 90.042,220.420 89.583 C 220.548 89.125,220.850 87.925,221.091 86.917 C 221.332 85.908,221.566 84.952,221.610 84.792 C 221.683 84.522,222.071 84.500,226.748 84.500 L 231.806 84.500 232.057 85.542 C 232.798 88.619,233.565 91.442,233.710 91.625 C 233.922 91.894,239.676 91.924,239.943 91.657 C 240.158 91.442,239.905 90.128,239.095 87.250 C 238.966 86.792,238.812 86.154,238.753 85.833 C 238.694 85.513,238.539 84.875,238.408 84.417 C 238.278 83.958,237.605 81.258,236.913 78.417 C 236.222 75.575,235.553 72.875,235.427 72.417 C 235.207 71.613,234.871 70.253,234.417 68.333 C 233.947 66.348,233.624 65.047,233.403 64.250 C 233.275 63.792,232.753 61.692,232.242 59.583 C 231.732 57.475,231.230 55.581,231.129 55.375 C 230.944 55.001,230.931 55.000,226.809 55.000 C 222.702 55.000,222.673 55.003,222.439 55.375 M271.245 55.205 C 271.200 55.321,271.183 63.592,271.207 73.583 L 271.250 91.750 274.250 91.797 C 275.900 91.824,277.418 91.804,277.623 91.753 L 277.997 91.661 278.040 84.372 L 278.083 77.083 281.542 77.038 L 285.000 76.993 285.000 84.213 C 285.000 89.607,285.051 91.484,285.200 91.633 C 285.446 91.879,291.450 91.912,291.833 91.670 C 292.160 91.464,292.305 56.239,291.982 55.458 L 291.793 55.000 288.596 55.000 C 286.333 55.000,285.342 55.058,285.200 55.200 C 285.051 55.349,285.000 57.244,285.000 62.700 L 285.000 70.000 281.502 70.000 L 278.003 70.000 277.960 62.542 L 277.917 55.083 274.621 55.038 C 272.075 55.003,271.307 55.041,271.245 55.205 M297.673 55.322 C 297.557 55.539,297.500 61.485,297.500 73.417 C 297.500 85.349,297.557 91.295,297.673 91.511 C 297.886 91.910,317.905 92.028,318.300 91.633 C 318.441 91.493,318.500 90.541,318.500 88.417 C 318.500 86.293,318.441 85.341,318.300 85.200 C 318.151 85.051,316.367 85.000,311.300 85.000 L 304.500 85.000 304.500 81.101 C 304.500 77.700,304.534 77.189,304.764 77.101 C 304.909 77.046,307.256 77.000,309.980 77.000 C 313.610 77.000,314.987 76.947,315.133 76.800 C 315.423 76.510,315.415 70.573,315.125 70.385 C 315.010 70.311,312.592 70.212,309.750 70.167 L 304.583 70.083 304.583 66.000 L 304.583 61.917 311.333 61.833 C 315.046 61.788,318.177 61.689,318.292 61.615 C 318.582 61.427,318.590 55.490,318.300 55.200 C 317.905 54.805,297.886 54.924,297.673 55.322 M328.684 55.359 C 324.653 56.620,324.010 58.180,324.004 66.721 L 324.000 72.526 324.458 72.979 C 324.795 73.312,325.646 73.666,327.667 74.313 C 329.179 74.797,330.679 75.293,331.000 75.414 C 331.321 75.536,332.933 76.059,334.583 76.577 C 336.233 77.096,337.696 77.580,337.833 77.654 C 338.227 77.865,338.198 83.541,337.799 84.269 C 337.337 85.113,336.641 85.333,334.439 85.333 C 331.315 85.333,330.833 84.906,330.833 82.133 C 330.833 80.061,331.014 80.167,327.480 80.167 C 323.608 80.167,323.999 79.832,324.004 83.143 C 324.015 90.288,325.862 91.833,334.392 91.833 C 343.953 91.833,345.000 90.611,345.000 79.448 C 345.000 72.152,345.714 73.127,338.750 70.907 C 336.825 70.294,334.275 69.476,333.083 69.090 L 330.917 68.388 330.871 65.598 L 330.825 62.808 331.380 62.254 C 332.039 61.594,333.068 61.405,335.256 61.542 C 337.619 61.689,337.984 62.104,338.146 64.833 L 338.250 66.583 341.395 66.629 C 345.293 66.685,345.000 66.894,345.000 64.056 C 345.000 58.802,343.600 56.282,340.140 55.304 C 338.768 54.916,329.965 54.959,328.684 55.359 M355.184 55.362 C 351.178 56.606,350.500 58.269,350.500 66.858 L 350.500 72.533 350.989 72.990 C 351.337 73.315,352.265 73.702,354.198 74.328 C 355.693 74.813,358.356 75.681,360.116 76.256 C 361.876 76.832,363.539 77.352,363.813 77.412 C 364.665 77.599,364.699 77.742,364.638 80.867 C 364.556 85.107,364.364 85.333,360.863 85.333 C 357.845 85.333,357.340 84.879,357.336 82.158 C 357.333 80.054,357.525 80.167,353.917 80.167 C 350.203 80.167,350.500 79.911,350.500 83.108 C 350.500 90.264,352.377 91.822,361.000 91.822 C 366.761 91.822,368.072 91.498,369.717 89.668 C 371.315 87.891,371.527 86.620,371.465 79.222 L 371.417 73.526 371.026 73.111 C 370.582 72.639,370.173 72.484,365.000 70.827 C 362.938 70.166,360.387 69.341,359.333 68.992 L 357.417 68.359 357.371 65.584 L 357.325 62.808 357.879 62.254 C 358.533 61.600,359.815 61.385,362.032 61.556 C 364.154 61.719,364.500 62.153,364.651 64.833 L 364.750 66.583 367.988 66.629 C 371.832 66.683,371.494 66.935,371.496 64.000 C 371.500 58.670,370.237 56.418,366.627 55.320 C 365.047 54.839,356.770 54.870,355.184 55.362 M227.000 64.645 C 227.000 64.806,227.140 65.495,227.311 66.177 C 227.697 67.714,228.192 69.832,228.749 72.333 C 228.984 73.387,229.321 74.813,229.497 75.500 C 229.672 76.188,229.867 77.144,229.930 77.625 L 230.043 78.500 226.781 78.500 C 224.987 78.500,223.485 78.444,223.443 78.375 C 223.368 78.252,223.538 77.434,224.418 73.667 C 224.665 72.612,224.973 71.262,225.103 70.667 C 225.404 69.285,226.462 64.832,226.600 64.364 C 226.688 64.065,227.000 64.284,227.000 64.645 " stroke="none" fill="#060506" fill-rule="evenodd"></path><path id="path1" d="M48.146 51.294 C 47.997 51.545,47.440 52.462,46.909 53.333 C 45.946 54.911,45.012 56.488,42.418 60.917 C 38.342 67.877,36.762 70.594,33.839 75.667 C 32.069 78.737,29.796 82.669,28.788 84.404 C 25.128 90.700,24.375 93.881,25.475 98.391 C 25.850 99.930,26.152 100.691,26.162 100.125 C 26.167 99.811,27.415 99.680,27.528 99.982 C 27.558 100.064,28.652 100.229,29.958 100.349 C 31.265 100.469,32.333 100.617,32.333 100.677 C 32.333 100.738,33.383 100.885,34.667 101.006 C 35.950 101.126,37.000 101.273,37.000 101.331 C 37.000 101.389,38.425 101.576,40.167 101.746 C 41.908 101.915,43.333 102.107,43.333 102.172 C 43.333 102.237,44.421 102.385,45.750 102.500 C 47.079 102.615,48.167 102.765,48.167 102.833 C 48.167 102.901,49.254 103.054,50.583 103.172 C 51.913 103.291,53.000 103.440,53.000 103.504 C 53.000 103.568,54.050 103.716,55.333 103.833 C 56.617 103.951,57.667 104.100,57.667 104.165 C 57.667 104.229,58.618 104.370,59.780 104.477 C 62.159 104.696,62.097 104.675,61.833 105.167 C 61.727 105.366,61.671 105.560,61.709 105.598 C 61.747 105.636,61.984 105.249,62.235 104.737 C 62.971 103.234,63.186 101.784,63.220 98.113 L 63.250 94.810 62.396 94.749 C 60.612 94.623,59.941 94.045,59.938 92.632 C 59.936 91.763,60.258 91.263,60.929 91.095 C 61.237 91.018,61.333 90.882,61.333 90.526 C 61.333 89.939,61.953 89.333,62.552 89.333 C 63.386 89.333,63.218 87.785,62.356 87.526 C 60.466 86.960,60.274 85.724,61.923 84.743 C 62.194 84.581,62.185 84.523,61.790 83.897 C 56.460 75.453,54.816 71.298,53.426 62.756 C 53.101 60.760,52.788 60.709,56.223 63.209 L 57.311 64.001 58.682 63.083 C 61.057 61.493,62.763 60.860,63.837 61.168 C 64.260 61.289,64.307 61.257,64.403 60.778 C 65.127 57.157,71.185 56.980,72.327 60.546 C 72.519 61.144,72.558 61.171,73.084 61.072 C 74.182 60.866,76.182 61.685,78.423 63.259 C 79.594 64.082,79.349 64.149,81.698 62.375 C 83.513 61.004,83.720 60.931,83.594 61.708 C 82.044 71.299,81.355 73.136,75.776 82.571 C 74.682 84.420,74.622 84.570,74.914 84.737 C 76.445 85.612,76.248 87.029,74.533 87.491 C 73.540 87.758,73.275 89.333,74.223 89.333 C 74.775 89.333,75.310 89.782,75.464 90.373 C 75.548 90.698,75.788 91.002,76.092 91.170 C 77.958 92.200,76.783 94.637,74.381 94.718 L 73.451 94.750 73.548 98.417 C 73.651 102.280,73.841 103.371,74.709 105.083 C 75.089 105.832,76.400 107.590,76.712 107.770 C 76.825 107.834,76.748 107.701,76.542 107.474 C 75.994 106.872,76.052 106.609,76.708 106.726 C 77.006 106.779,77.831 106.873,78.542 106.934 C 79.252 106.996,79.833 107.095,79.833 107.156 C 79.833 107.216,80.902 107.365,82.208 107.485 C 83.515 107.606,84.621 107.760,84.667 107.828 C 84.712 107.895,85.819 108.047,87.125 108.165 C 88.431 108.283,89.500 108.431,89.500 108.494 C 89.500 108.557,90.550 108.707,91.833 108.827 C 93.117 108.948,94.167 109.099,94.167 109.163 C 94.167 109.227,95.254 109.376,96.583 109.494 C 98.822 109.694,99.324 109.824,98.792 110.067 C 98.218 110.329,100.243 109.908,101.304 109.545 C 108.390 107.119,112.774 99.723,111.508 92.333 C 111.172 90.372,110.449 88.589,108.941 86.000 C 108.488 85.221,107.314 83.196,106.334 81.500 C 104.101 77.635,100.865 72.086,98.753 68.500 C 96.746 65.093,94.833 61.818,94.494 61.209 C 94.353 60.957,94.020 60.413,93.755 60.000 C 93.490 59.587,93.192 59.100,93.093 58.917 C 91.990 56.873,91.798 56.743,89.625 56.570 C 88.823 56.506,88.167 56.401,88.167 56.336 C 88.167 56.270,87.154 56.119,85.917 56.000 C 84.679 55.881,83.667 55.734,83.667 55.675 C 83.667 55.616,82.598 55.469,81.292 55.349 C 79.985 55.229,78.892 55.064,78.861 54.982 C 78.831 54.900,78.606 54.835,78.361 54.836 C 77.509 54.842,72.416 54.267,72.333 54.155 C 72.287 54.093,71.200 53.946,69.917 53.829 C 68.633 53.711,67.546 53.560,67.500 53.493 C 67.454 53.426,66.348 53.273,65.042 53.152 C 63.735 53.031,62.667 52.883,62.667 52.823 C 62.667 52.762,61.617 52.615,60.333 52.494 C 59.050 52.374,58.000 52.228,58.000 52.170 C 58.000 52.112,56.575 51.923,54.833 51.750 C 53.092 51.577,51.667 51.384,51.667 51.322 C 51.667 51.260,51.048 51.159,50.292 51.096 C 49.535 51.033,48.804 50.950,48.667 50.911 C 48.522 50.869,48.303 51.030,48.146 51.294 M89.917 110.333 L 83.250 110.422 89.750 110.442 C 93.325 110.452,96.737 110.406,97.333 110.339 L 98.417 110.217 97.500 110.231 C 96.996 110.238,93.583 110.284,89.917 110.333 " stroke="none" fill="#cb3a91" fill-rule="evenodd"></path><path id="path2" d="M0.000 65.000 L 0.000 130.000 200.000 130.000 L 400.000 130.000 400.000 65.000 L 400.000 0.000 200.000 0.000 L 0.000 0.000 0.000 65.000 M72.583 31.925 C 76.710 33.122,79.726 35.507,81.907 39.300 C 83.394 41.885,87.049 48.205,89.251 52.000 C 90.608 54.337,92.520 57.637,93.501 59.333 C 94.482 61.029,96.392 64.329,97.746 66.667 C 100.701 71.769,103.907 77.307,106.332 81.500 C 107.314 83.196,108.488 85.221,108.941 86.000 C 110.990 89.517,111.728 91.887,111.718 94.917 C 111.694 102.476,106.336 108.827,98.833 110.190 C 96.743 110.569,82.623 110.512,81.084 110.118 C 75.955 108.803,73.732 105.352,73.548 98.417 L 73.451 94.750 74.381 94.718 C 76.783 94.637,77.958 92.200,76.092 91.170 C 75.788 91.002,75.548 90.698,75.464 90.373 C 75.310 89.782,74.775 89.333,74.223 89.333 C 73.275 89.333,73.540 87.758,74.533 87.491 C 76.248 87.029,76.445 85.612,74.914 84.737 C 74.622 84.570,74.682 84.420,75.776 82.571 C 81.109 73.552,81.808 71.810,83.084 64.366 C 83.686 60.852,83.746 60.939,81.750 62.436 C 79.358 64.229,79.695 64.170,78.055 63.079 C 75.949 61.678,74.970 61.272,73.583 61.227 L 72.417 61.189 72.258 60.578 C 71.349 57.072,65.031 57.330,64.466 60.896 C 64.424 61.165,64.251 61.213,63.250 61.235 C 61.861 61.267,60.817 61.698,58.720 63.109 L 57.331 64.042 56.707 63.622 C 56.364 63.391,55.483 62.749,54.750 62.194 C 54.017 61.640,53.390 61.262,53.357 61.354 C 53.126 62.010,54.732 69.940,55.581 72.333 C 56.115 73.840,59.951 80.983,61.790 83.897 C 62.185 84.523,62.194 84.581,61.923 84.743 C 60.274 85.724,60.466 86.960,62.356 87.526 C 63.218 87.785,63.386 89.333,62.552 89.333 C 61.953 89.333,61.333 89.939,61.333 90.526 C 61.333 90.882,61.237 91.018,60.929 91.095 C 60.258 91.263,59.936 91.763,59.938 92.632 C 59.941 94.045,60.612 94.623,62.396 94.749 L 63.250 94.810 63.220 98.113 C 63.172 103.369,62.649 105.011,60.251 107.430 C 58.532 109.165,57.079 109.896,54.602 110.271 C 52.294 110.620,39.608 110.505,37.635 110.117 C 30.316 108.677,25.116 102.363,25.115 94.917 C 25.115 91.382,25.691 89.733,28.787 84.404 C 29.795 82.669,31.916 79.000,33.501 76.250 C 35.085 73.500,37.185 69.862,38.167 68.167 C 39.150 66.471,40.929 63.396,42.122 61.333 C 43.315 59.271,45.811 54.958,47.669 51.750 C 49.527 48.542,51.911 44.417,52.966 42.583 C 54.021 40.750,55.218 38.743,55.626 38.123 C 59.178 32.717,66.317 30.108,72.583 31.925 M136.967 49.882 C 137.320 50.257,137.388 50.531,139.514 60.167 C 139.706 61.038,140.001 62.350,140.169 63.083 C 140.337 63.817,140.673 65.317,140.916 66.417 C 141.159 67.517,141.502 69.054,141.679 69.833 C 142.486 73.390,142.653 74.144,142.832 75.039 C 143.087 76.318,143.270 76.365,143.499 75.211 C 143.603 74.682,143.829 73.650,144.000 72.917 C 144.171 72.183,144.510 70.683,144.752 69.583 C 144.994 68.483,145.329 66.983,145.496 66.250 C 146.045 63.837,146.311 62.632,147.245 58.333 C 147.753 55.996,148.275 53.671,148.405 53.167 C 148.535 52.663,148.694 51.913,148.757 51.500 C 149.059 49.541,149.164 49.500,153.822 49.500 C 157.444 49.500,157.686 49.519,158.000 49.833 C 158.476 50.309,158.532 91.171,158.058 91.695 C 157.689 92.102,152.117 92.161,151.574 91.763 C 151.260 91.534,151.248 91.160,151.167 79.305 C 151.121 72.583,151.027 67.170,150.958 67.277 C 150.888 67.383,150.674 68.208,150.482 69.110 C 150.289 70.012,149.990 71.387,149.817 72.167 C 149.643 72.946,149.356 74.258,149.178 75.083 C 149.000 75.908,148.657 77.483,148.416 78.583 C 148.174 79.683,147.833 81.258,147.657 82.083 C 147.481 82.908,147.195 84.221,147.022 85.000 C 146.848 85.779,146.518 87.279,146.288 88.333 C 145.446 92.200,145.615 92.000,143.167 92.000 C 140.756 92.000,140.851 92.098,140.167 88.917 C 139.989 88.092,139.653 86.554,139.420 85.500 C 139.187 84.446,138.848 82.908,138.667 82.083 C 138.485 81.258,138.146 79.721,137.913 78.667 C 137.681 77.612,137.339 76.037,137.153 75.167 C 136.968 74.296,136.676 72.946,136.504 72.167 C 136.333 71.387,136.037 70.012,135.846 69.109 C 135.656 68.207,135.444 67.382,135.375 67.276 C 135.306 67.170,135.212 72.583,135.167 79.305 C 135.068 93.798,135.580 92.000,131.551 92.000 C 127.472 92.000,128.000 95.157,128.000 70.756 L 128.000 50.180 128.365 49.840 C 128.964 49.281,136.437 49.317,136.967 49.882 M260.217 49.771 C 264.482 50.733,265.667 52.866,265.667 59.580 C 265.667 64.263,266.018 63.833,262.187 63.833 C 258.403 63.833,258.711 64.108,258.635 60.664 C 258.552 56.866,258.381 56.669,255.167 56.669 C 251.489 56.669,251.833 55.207,251.833 70.804 L 251.833 83.866 252.339 84.338 C 252.944 84.904,254.052 85.090,256.014 84.955 C 258.349 84.795,258.557 84.465,258.641 80.780 C 258.719 77.396,258.407 77.667,262.224 77.667 C 265.982 77.667,265.667 77.278,265.667 81.918 C 265.667 88.168,264.754 90.198,261.391 91.436 L 260.083 91.917 255.000 91.917 C 247.832 91.917,246.282 91.257,244.816 87.583 L 244.417 86.583 244.370 71.440 C 244.342 62.363,244.387 55.954,244.482 55.440 C 245.044 52.399,246.645 50.617,249.500 49.854 C 251.205 49.399,258.324 49.343,260.217 49.771 M184.529 55.109 C 184.954 55.494,184.992 61.032,184.574 61.630 L 184.314 62.000 177.574 62.000 L 170.833 62.000 170.833 66.000 L 170.833 70.000 175.917 70.000 C 182.283 70.000,181.667 69.618,181.667 73.565 C 181.667 77.558,182.288 77.158,176.000 77.209 L 170.917 77.250 170.917 81.083 L 170.917 84.917 177.667 84.959 C 183.776 84.997,184.436 85.028,184.625 85.282 C 184.973 85.752,184.914 91.301,184.558 91.695 C 184.161 92.134,164.197 92.173,163.760 91.736 C 163.369 91.345,163.441 55.244,163.833 54.996 C 164.331 54.682,184.176 54.790,184.529 55.109 M209.905 55.095 C 210.124 55.314,210.167 55.858,210.167 58.419 C 210.167 62.311,210.503 62.000,206.296 62.000 L 203.167 62.000 203.167 76.800 C 203.167 88.089,203.119 91.647,202.967 91.800 C 202.634 92.133,196.434 92.077,196.095 91.738 C 195.861 91.504,195.833 89.914,195.833 76.738 L 195.833 62.000 192.667 62.000 C 188.524 62.000,188.833 62.292,188.833 58.388 C 188.833 55.881,188.874 55.398,189.109 55.138 C 189.504 54.701,209.470 54.660,209.905 55.095 M231.046 55.042 C 231.208 55.164,231.498 55.976,231.747 57.000 C 231.980 57.962,232.245 59.012,232.335 59.333 C 232.425 59.654,233.549 64.192,234.834 69.417 C 236.119 74.642,237.244 79.179,237.335 79.500 C 238.052 82.033,240.176 91.114,240.135 91.470 L 240.083 91.917 236.965 91.962 L 233.846 92.007 233.582 91.604 C 233.436 91.382,232.982 89.862,232.572 88.225 C 232.162 86.589,231.785 85.119,231.735 84.958 C 231.651 84.689,231.265 84.667,226.743 84.667 L 221.843 84.667 221.599 85.542 C 221.465 86.023,221.076 87.567,220.735 88.972 C 219.941 92.247,220.272 92.000,216.675 92.000 C 212.853 92.000,212.900 92.076,214.095 87.917 C 214.226 87.458,215.197 83.558,216.251 79.250 C 217.305 74.942,218.242 71.154,218.333 70.833 C 218.423 70.512,218.646 69.650,218.826 68.917 C 219.007 68.183,219.194 67.433,219.241 67.250 C 219.288 67.067,219.931 64.459,220.669 61.455 C 222.088 55.680,222.237 55.164,222.552 54.964 C 222.910 54.737,230.736 54.808,231.046 55.042 M277.926 55.070 C 278.237 55.297,278.252 55.602,278.297 62.653 L 278.343 70.000 281.582 70.000 L 284.820 70.000 284.868 62.653 C 284.915 55.603,284.930 55.297,285.240 55.070 C 285.636 54.780,291.320 54.725,291.844 55.006 C 292.244 55.220,292.364 91.403,291.967 91.800 C 291.622 92.144,285.437 92.076,285.145 91.725 C 284.962 91.504,284.900 90.016,284.833 84.266 L 284.750 77.083 281.542 77.038 L 278.333 76.993 278.331 84.038 C 278.329 89.381,278.278 91.184,278.118 91.500 L 277.907 91.917 274.662 91.963 C 271.519 92.009,271.407 91.999,271.125 91.653 C 270.637 91.056,270.678 55.656,271.167 55.167 C 271.600 54.733,277.353 54.651,277.926 55.070 M318.333 54.996 C 318.720 55.240,318.799 61.023,318.423 61.596 L 318.159 62.000 311.413 62.000 L 304.667 62.000 304.667 66.000 L 304.667 70.000 309.779 70.000 C 314.301 70.000,314.926 70.032,315.195 70.276 C 315.537 70.585,315.661 76.320,315.337 76.833 C 315.204 77.044,314.356 77.096,309.965 77.167 L 304.750 77.250 304.750 81.083 L 304.750 84.917 311.537 84.960 C 318.175 85.003,318.328 85.011,318.506 85.344 C 318.803 85.900,318.651 91.637,318.333 91.837 C 317.835 92.152,297.991 92.043,297.638 91.724 C 297.188 91.317,297.160 55.635,297.609 55.138 C 297.921 54.793,317.796 54.657,318.333 54.996 M339.250 55.008 C 343.425 55.609,344.988 57.977,344.996 63.712 L 345.000 66.675 344.572 66.837 C 344.337 66.927,342.929 67.000,341.443 67.000 C 338.007 67.000,338.002 66.997,337.996 65.199 C 337.986 62.124,337.683 61.833,334.480 61.833 C 331.057 61.833,330.967 61.930,330.864 65.704 C 330.797 68.153,330.798 68.158,331.190 68.317 C 331.406 68.404,333.271 69.014,335.333 69.672 C 343.906 72.406,344.125 72.485,344.586 73.034 L 345.017 73.546 344.967 80.231 L 344.917 86.917 344.439 87.999 C 342.963 91.345,341.512 91.917,334.500 91.917 C 325.685 91.917,324.024 90.607,323.872 83.533 C 323.789 79.653,323.449 80.000,327.333 80.000 C 331.112 80.000,330.880 79.851,331.012 82.367 C 331.147 84.947,331.272 85.062,334.031 85.143 C 337.768 85.254,337.882 85.131,337.972 80.904 L 338.035 77.891 337.059 77.546 C 336.523 77.356,333.946 76.514,331.333 75.674 C 324.935 73.616,324.727 73.536,324.247 72.966 L 323.833 72.474 323.833 66.735 C 323.833 58.613,324.380 57.051,327.750 55.533 C 329.199 54.881,336.158 54.563,339.250 55.008 M365.769 55.013 C 369.918 55.590,371.541 58.044,371.570 63.782 C 371.587 67.181,371.877 66.904,368.229 66.969 C 364.411 67.038,364.578 67.141,364.459 64.644 C 364.331 61.935,364.206 61.833,360.986 61.833 C 357.536 61.833,357.500 61.873,357.500 65.735 L 357.500 68.320 358.208 68.511 C 358.598 68.616,359.779 68.983,360.833 69.326 C 361.887 69.670,364.516 70.524,366.675 71.224 C 372.147 72.999,371.734 72.238,371.620 80.332 C 371.510 88.164,370.979 89.788,368.081 91.150 C 365.831 92.208,357.007 92.409,354.609 91.456 C 351.462 90.206,350.333 88.010,350.333 83.140 C 350.333 79.740,350.040 79.999,353.887 80.003 C 357.637 80.006,357.394 79.855,357.510 82.250 C 357.641 84.961,357.746 85.061,360.531 85.143 C 364.312 85.256,364.417 85.140,364.417 80.872 L 364.417 77.811 363.500 77.509 C 362.996 77.343,360.333 76.481,357.583 75.593 C 351.244 73.547,351.166 73.515,350.708 72.839 C 350.157 72.023,350.126 61.824,350.669 59.864 C 351.426 57.133,353.341 55.413,356.059 55.022 C 357.543 54.808,364.253 54.802,365.769 55.013 M226.609 64.792 C 226.567 64.860,226.453 65.329,226.356 65.833 C 226.200 66.652,225.983 67.605,224.824 72.583 C 224.653 73.317,224.330 74.704,224.106 75.667 C 223.882 76.629,223.646 77.623,223.581 77.875 L 223.464 78.333 226.751 78.333 L 230.039 78.333 229.934 77.958 C 229.733 77.239,228.568 72.265,227.582 67.917 C 226.804 64.488,226.802 64.480,226.609 64.792 " stroke="none" fill="#fbfbfb" fill-rule="evenodd"></path><path id="path3" d="M65.960 31.502 C 62.832 31.999,59.642 33.669,57.327 36.020 C 56.156 37.210,55.441 38.285,52.965 42.583 C 49.571 48.475,46.813 53.235,46.472 53.792 C 46.289 54.090,46.181 54.333,46.232 54.333 C 46.283 54.333,46.672 53.752,47.096 53.042 C 47.520 52.331,47.991 51.545,48.142 51.294 C 48.301 51.031,48.522 50.869,48.667 50.911 C 48.804 50.950,49.535 51.033,50.292 51.096 C 51.048 51.159,51.667 51.260,51.667 51.322 C 51.667 51.384,53.092 51.577,54.833 51.750 C 56.575 51.923,58.000 52.112,58.000 52.170 C 58.000 52.228,59.050 52.374,60.333 52.494 C 61.617 52.615,62.667 52.762,62.667 52.823 C 62.667 52.883,63.735 53.031,65.042 53.152 C 66.348 53.273,67.454 53.426,67.500 53.493 C 67.546 53.560,68.633 53.711,69.917 53.829 C 71.200 53.946,72.287 54.093,72.333 54.155 C 72.416 54.267,77.509 54.842,78.361 54.836 C 78.606 54.835,78.831 54.900,78.861 54.982 C 78.892 55.064,79.985 55.229,81.292 55.349 C 82.598 55.469,83.667 55.616,83.667 55.675 C 83.667 55.734,84.679 55.881,85.917 56.000 C 87.154 56.119,88.167 56.270,88.167 56.336 C 88.167 56.401,88.823 56.506,89.625 56.570 C 91.643 56.731,91.721 56.761,92.254 57.603 C 92.960 58.721,93.136 58.697,92.501 57.569 C 92.196 57.027,91.891 56.508,91.823 56.417 C 91.755 56.325,90.593 54.337,89.242 52.000 C 86.214 46.762,82.638 40.571,81.907 39.300 C 78.619 33.583,72.302 30.494,65.960 31.502 M93.004 58.792 C 93.006 58.860,93.160 59.104,93.347 59.333 L 93.687 59.750 93.422 59.208 C 93.171 58.694,92.996 58.519,93.004 58.792 M73.208 61.115 C 73.369 61.157,73.631 61.157,73.792 61.115 C 73.952 61.073,73.821 61.039,73.500 61.039 C 73.179 61.039,73.048 61.073,73.208 61.115 " stroke="none" fill="#f47f58" fill-rule="evenodd"></path><path id="path4" d="M128.365 49.840 L 128.000 50.180 128.000 70.756 C 128.000 91.111,128.004 91.337,128.333 91.667 C 128.785 92.118,134.211 92.181,134.760 91.741 C 135.072 91.490,135.071 91.488,134.719 91.657 C 134.263 91.878,128.846 91.889,128.500 91.670 C 128.046 91.383,128.044 50.456,128.498 50.002 C 128.814 49.686,129.048 49.667,132.648 49.667 C 137.186 49.667,137.029 49.607,137.419 51.491 C 137.664 52.675,137.836 53.161,137.831 52.653 C 137.824 51.970,137.273 50.207,136.964 49.878 C 136.437 49.317,128.962 49.284,128.365 49.840 M149.477 49.843 L 149.083 50.186 149.526 49.918 C 150.157 49.535,157.756 49.608,158.004 50.000 C 158.310 50.485,158.212 91.264,157.905 91.571 C 157.589 91.887,152.241 91.960,151.614 91.657 C 151.262 91.488,151.261 91.490,151.574 91.741 C 152.097 92.160,157.672 92.121,158.058 91.695 C 158.532 91.171,158.476 50.309,158.000 49.833 C 157.478 49.311,150.077 49.320,149.477 49.843 M250.027 49.697 C 248.924 49.944,249.277 50.004,250.672 49.808 C 251.386 49.707,253.692 49.660,256.083 49.696 C 258.375 49.731,260.025 49.710,259.750 49.649 C 258.965 49.477,250.833 49.517,250.027 49.697 M247.889 50.420 C 247.425 50.652,246.904 51.003,246.731 51.202 C 246.446 51.529,246.471 51.525,246.988 51.157 C 247.302 50.933,247.902 50.587,248.321 50.389 C 248.740 50.190,249.004 50.022,248.908 50.014 C 248.811 50.006,248.353 50.189,247.889 50.420 M261.250 50.167 C 261.307 50.258,261.446 50.333,261.561 50.333 C 261.675 50.333,262.137 50.567,262.587 50.853 C 263.038 51.139,263.301 51.245,263.172 51.090 C 262.794 50.634,261.009 49.777,261.250 50.167 M148.941 50.612 C 148.770 51.192,148.630 52.167,148.718 52.167 C 148.832 52.167,149.196 50.474,149.102 50.380 C 149.063 50.340,148.990 50.445,148.941 50.612 M263.736 51.708 C 263.888 51.915,264.141 52.295,264.298 52.554 C 264.803 53.386,265.020 53.642,264.891 53.250 C 264.767 52.876,263.687 51.333,263.549 51.333 C 263.500 51.333,263.584 51.502,263.736 51.708 M245.779 52.208 C 245.239 52.932,244.951 53.507,245.070 53.625 C 245.123 53.679,245.167 53.642,245.167 53.545 C 245.167 53.447,245.424 52.984,245.739 52.517 C 246.377 51.568,246.403 51.372,245.779 52.208 M137.935 53.583 C 138.086 54.688,138.392 55.933,138.447 55.667 C 138.476 55.529,138.352 54.854,138.172 54.167 C 137.991 53.479,137.885 53.217,137.935 53.583 M148.196 53.947 C 147.891 55.390,147.787 56.085,147.892 55.989 C 148.038 55.854,148.547 53.325,148.448 53.226 C 148.403 53.181,148.289 53.505,148.196 53.947 M265.053 53.917 C 265.166 54.313,265.473 56.043,265.557 56.750 C 265.597 57.086,265.624 57.004,265.639 56.500 C 265.662 55.724,265.301 53.907,265.083 53.701 C 265.014 53.636,265.001 53.733,265.053 53.917 M244.552 54.941 C 244.311 56.083,244.383 86.518,244.629 87.000 C 244.838 87.412,244.839 87.411,244.725 86.917 C 244.523 86.044,244.468 56.878,244.666 55.602 C 244.857 54.366,244.775 53.887,244.552 54.941 M163.875 54.944 C 163.760 54.990,163.667 55.112,163.667 55.214 C 163.667 55.343,163.728 55.339,163.867 55.200 C 164.018 55.049,166.542 55.000,174.204 55.000 L 184.342 55.000 184.515 55.455 C 184.717 55.987,184.655 61.401,184.445 61.612 C 184.368 61.688,181.256 61.788,177.528 61.833 L 170.750 61.917 170.750 66.000 L 170.750 70.083 175.917 70.167 C 178.758 70.212,181.196 70.312,181.333 70.387 C 181.471 70.463,181.438 70.407,181.260 70.262 C 180.981 70.037,180.233 70.000,175.885 70.000 L 170.833 70.000 170.833 66.000 L 170.833 62.000 177.574 62.000 L 184.314 62.000 184.574 61.630 C 184.992 61.032,184.954 55.494,184.529 55.109 C 184.231 54.840,164.523 54.682,163.875 54.944 M189.109 55.138 C 188.874 55.398,188.833 55.881,188.833 58.388 C 188.833 62.292,188.524 62.000,192.667 62.000 L 195.833 62.000 195.833 76.738 C 195.833 89.914,195.861 91.504,196.095 91.738 C 196.434 92.077,202.634 92.133,202.967 91.800 C 203.119 91.647,203.167 88.089,203.167 76.800 L 203.167 62.000 206.296 62.000 C 210.503 62.000,210.167 62.311,210.167 58.419 C 210.167 55.858,210.124 55.314,209.905 55.095 C 209.470 54.660,189.504 54.701,189.109 55.138 M222.429 55.095 C 222.285 55.239,222.167 55.435,222.167 55.530 C 222.167 55.626,222.298 55.545,222.458 55.352 C 222.739 55.013,222.909 54.998,226.833 54.955 L 230.917 54.910 226.804 54.872 C 223.252 54.839,222.655 54.869,222.429 55.095 M273.050 54.958 C 273.949 54.988,275.374 54.988,276.217 54.957 C 277.060 54.927,276.325 54.903,274.583 54.903 C 272.842 54.903,272.152 54.928,273.050 54.958 M287.050 54.958 C 287.949 54.988,289.374 54.988,290.217 54.957 C 291.060 54.927,290.325 54.903,288.583 54.903 C 286.842 54.903,286.152 54.928,287.050 54.958 M297.609 55.138 C 297.160 55.635,297.188 91.317,297.638 91.724 C 298.199 92.232,318.500 92.126,318.500 91.616 C 318.500 91.494,318.434 91.500,318.300 91.633 C 317.905 92.028,297.886 91.910,297.673 91.511 C 297.557 91.295,297.500 85.349,297.500 73.417 C 297.500 61.485,297.557 55.539,297.673 55.322 C 297.886 54.924,317.905 54.805,318.300 55.200 C 318.434 55.334,318.500 55.340,318.500 55.218 C 318.500 54.682,298.092 54.605,297.609 55.138 M332.458 54.958 C 333.581 54.987,335.419 54.987,336.542 54.958 C 337.665 54.929,336.746 54.905,334.500 54.905 C 332.254 54.905,331.335 54.929,332.458 54.958 M358.958 54.958 C 360.081 54.987,361.919 54.987,363.042 54.958 C 364.165 54.929,363.246 54.905,361.000 54.905 C 358.754 54.905,357.835 54.929,358.958 54.958 M209.800 55.200 C 210.090 55.490,210.082 61.427,209.792 61.615 C 209.677 61.689,208.121 61.788,206.333 61.833 L 203.083 61.917 203.041 76.741 C 203.007 88.346,202.953 91.593,202.791 91.697 C 202.283 92.019,196.355 91.853,196.173 91.511 C 196.057 91.296,196.000 86.313,196.000 76.521 L 196.000 61.853 192.660 61.801 C 189.912 61.759,189.293 61.706,189.163 61.500 C 188.947 61.157,188.955 55.729,189.173 55.322 C 189.386 54.924,209.405 54.805,209.800 55.200 M271.006 55.322 C 270.662 55.965,270.778 91.228,271.125 91.653 C 271.407 91.999,271.519 92.009,274.662 91.963 L 277.907 91.917 278.118 91.500 C 278.386 90.969,278.434 76.918,278.167 77.083 C 278.060 77.149,278.000 79.778,278.000 84.423 L 278.000 91.660 277.625 91.753 C 277.419 91.803,275.900 91.824,274.250 91.797 L 271.250 91.750 271.250 73.375 C 271.250 63.269,271.234 55.000,271.214 55.000 C 271.195 55.000,271.101 55.145,271.006 55.322 M277.962 62.508 C 277.991 67.412,278.065 70.000,278.175 70.000 C 278.404 70.000,278.314 55.414,278.083 55.183 C 277.972 55.072,277.932 57.514,277.962 62.508 M328.744 55.155 C 328.466 55.222,328.091 55.368,327.911 55.480 C 327.594 55.676,327.594 55.680,327.935 55.587 C 329.480 55.170,330.128 54.824,328.744 55.155 M339.500 55.154 C 339.637 55.250,339.900 55.330,340.083 55.332 C 341.058 55.345,343.242 56.852,343.773 57.878 C 343.911 58.145,344.066 58.323,344.116 58.273 C 344.445 57.944,342.581 56.168,341.306 55.596 C 340.336 55.161,339.063 54.849,339.500 55.154 M355.244 55.155 C 354.966 55.222,354.591 55.368,354.411 55.480 C 354.094 55.676,354.094 55.680,354.435 55.587 C 355.980 55.170,356.628 54.824,355.244 55.155 M366.667 55.313 C 368.344 55.858,369.323 56.529,370.191 57.727 C 370.453 58.088,370.667 58.307,370.667 58.215 C 370.667 57.317,367.958 55.341,366.417 55.114 C 365.835 55.028,365.867 55.053,366.667 55.313 M163.541 73.446 C 163.504 89.650,163.527 91.503,163.762 91.738 C 164.197 92.173,184.162 92.132,184.558 91.695 C 184.949 91.263,184.970 85.740,184.582 85.240 C 184.348 84.938,184.343 84.948,184.499 85.386 C 184.714 85.988,184.718 90.843,184.504 91.406 L 184.342 91.833 174.191 91.833 C 165.884 91.833,164.007 91.793,163.854 91.609 C 163.720 91.447,163.656 86.352,163.625 73.400 L 163.582 55.417 163.541 73.446 M318.569 58.417 C 318.569 60.067,318.594 60.719,318.624 59.867 C 318.655 59.014,318.654 57.664,318.624 56.867 C 318.593 56.069,318.569 56.767,318.569 58.417 M327.167 55.789 C 326.743 55.952,325.542 56.994,325.233 57.468 C 325.065 57.726,325.280 57.577,325.738 57.120 C 326.177 56.681,326.753 56.211,327.018 56.074 C 327.391 55.881,327.701 55.603,327.458 55.680 C 327.435 55.687,327.304 55.736,327.167 55.789 M353.583 55.836 C 353.400 55.918,352.988 56.222,352.667 56.513 C 352.346 56.803,352.271 56.916,352.500 56.765 C 352.729 56.613,353.160 56.334,353.458 56.145 C 354.159 55.699,354.218 55.553,353.583 55.836 M221.750 57.000 C 221.591 57.650,221.498 58.220,221.544 58.266 C 221.589 58.312,221.749 57.809,221.898 57.148 C 222.251 55.585,222.127 55.461,221.750 57.000 M284.910 62.917 C 284.910 66.858,284.932 68.447,284.958 66.447 C 284.985 64.447,284.985 61.222,284.958 59.280 C 284.931 57.339,284.910 58.975,284.910 62.917 M147.424 57.511 C 147.265 58.251,147.171 58.894,147.217 58.940 C 147.295 59.018,147.486 58.255,147.756 56.792 C 147.973 55.606,147.714 56.170,147.424 57.511 M231.500 56.480 C 231.500 56.814,232.039 58.850,232.108 58.781 C 232.144 58.745,232.053 58.199,231.907 57.567 C 231.650 56.458,231.500 56.058,231.500 56.480 M252.721 56.743 C 251.515 57.268,251.583 56.428,251.583 70.743 C 251.583 83.157,251.594 83.601,251.907 84.118 C 252.257 84.697,252.958 85.077,253.445 84.951 C 253.656 84.896,253.615 84.866,253.309 84.853 C 253.067 84.842,252.636 84.616,252.351 84.350 L 251.833 83.866 251.833 70.804 C 251.833 59.350,251.865 57.696,252.088 57.377 C 252.788 56.378,257.314 56.370,258.183 57.365 L 258.519 57.750 258.329 57.361 C 257.925 56.531,254.161 56.117,252.721 56.743 M138.771 57.397 C 138.870 58.301,139.150 59.200,139.140 58.583 C 139.137 58.400,139.033 57.875,138.908 57.417 L 138.681 56.583 138.771 57.397 M351.801 57.458 C 351.508 57.800,351.287 58.167,351.375 58.167 C 351.409 58.167,351.604 57.942,351.807 57.667 C 352.209 57.123,352.205 56.988,351.801 57.458 M324.588 58.492 C 324.298 59.053,324.267 59.227,324.484 59.093 C 324.642 58.995,325.033 58.000,324.912 58.000 C 324.874 58.000,324.727 58.221,324.588 58.492 M351.005 58.738 C 350.757 59.389,350.806 59.492,351.103 58.944 C 351.244 58.683,351.318 58.429,351.268 58.379 C 351.217 58.328,351.099 58.490,351.005 58.738 M370.963 59.330 C 371.109 59.787,371.257 60.132,371.292 60.097 C 371.393 59.995,371.006 58.690,370.844 58.590 C 370.763 58.540,370.817 58.873,370.963 59.330 M344.427 59.118 C 344.477 59.321,344.627 59.958,344.759 60.535 L 345.001 61.583 344.908 60.686 C 344.857 60.192,344.708 59.555,344.576 59.269 C 344.445 58.984,344.378 58.916,344.427 59.118 M220.926 60.343 C 220.776 61.002,220.686 61.575,220.727 61.616 C 220.768 61.657,220.924 61.150,221.074 60.491 C 221.224 59.831,221.314 59.258,221.273 59.217 C 221.232 59.177,221.076 59.683,220.926 60.343 M232.167 59.230 C 232.167 59.506,232.716 61.506,232.775 61.447 C 232.856 61.366,232.390 59.335,232.261 59.205 C 232.209 59.153,232.167 59.164,232.167 59.230 M139.447 60.500 C 139.503 60.913,139.613 61.400,139.692 61.583 C 139.782 61.794,139.796 61.641,139.729 61.167 C 139.672 60.754,139.561 60.267,139.485 60.083 C 139.399 59.877,139.385 60.037,139.447 60.500 M146.684 60.812 C 146.570 61.391,146.513 61.902,146.557 61.946 C 146.668 62.057,147.041 60.207,146.958 59.958 C 146.922 59.848,146.798 60.232,146.684 60.812 M323.938 60.542 C 323.883 60.748,323.837 63.530,323.836 66.725 L 323.833 72.533 324.400 73.100 C 324.712 73.412,325.068 73.666,325.192 73.666 C 325.315 73.666,325.178 73.520,324.886 73.342 C 323.978 72.788,323.981 72.813,324.034 66.246 C 324.061 62.902,324.073 60.167,324.061 60.167 C 324.049 60.167,323.994 60.335,323.938 60.542 M350.439 60.682 C 350.381 60.971,350.349 63.730,350.369 66.813 L 350.405 72.417 350.494 66.333 C 350.543 62.987,350.574 60.229,350.564 60.203 C 350.553 60.176,350.497 60.392,350.439 60.682 M318.264 61.625 C 318.195 61.694,315.089 61.788,311.361 61.833 L 304.583 61.917 304.583 66.000 L 304.583 70.083 309.750 70.167 C 312.592 70.212,315.010 70.311,315.125 70.385 C 315.415 70.573,315.423 76.510,315.133 76.800 C 314.987 76.947,313.610 77.000,309.980 77.000 C 307.256 77.000,304.909 77.046,304.764 77.101 C 304.482 77.209,304.345 85.000,304.625 85.000 C 304.694 85.000,304.750 83.256,304.750 81.125 L 304.750 77.250 309.965 77.167 C 314.356 77.096,315.204 77.044,315.337 76.833 C 315.661 76.320,315.537 70.585,315.195 70.276 C 314.926 70.032,314.301 70.000,309.779 70.000 L 304.667 70.000 304.667 66.000 L 304.667 62.000 311.396 62.000 C 317.175 62.000,318.155 61.965,318.333 61.750 C 318.545 61.495,318.491 61.398,318.264 61.625 M332.336 61.661 C 331.542 61.861,330.828 62.686,330.850 63.378 L 330.867 63.917 330.988 63.417 C 331.340 61.958,331.615 61.833,334.480 61.833 C 337.683 61.833,337.986 62.124,337.996 65.199 C 338.002 66.997,338.007 67.000,341.443 67.000 C 344.088 67.000,345.000 66.868,345.000 66.484 C 345.000 66.340,344.943 66.340,344.770 66.483 C 344.611 66.616,343.574 66.660,341.395 66.629 L 338.250 66.583 338.146 64.833 C 337.975 61.951,337.638 61.627,334.753 61.558 C 333.743 61.534,332.655 61.580,332.336 61.661 M358.926 61.654 C 358.514 61.740,358.093 61.988,357.797 62.319 L 357.325 62.848 357.371 65.618 C 357.405 67.701,357.469 68.400,357.629 68.432 C 357.746 68.456,357.765 68.437,357.671 68.390 C 357.001 68.058,357.579 62.404,358.324 62.005 C 359.086 61.597,363.262 61.795,363.821 62.265 C 364.104 62.503,364.294 62.597,364.244 62.474 C 363.923 61.686,360.959 61.229,358.926 61.654 M220.259 63.009 C 220.109 63.669,220.020 64.242,220.061 64.283 C 220.101 64.323,220.257 63.817,220.407 63.157 C 220.557 62.498,220.647 61.925,220.606 61.884 C 220.565 61.843,220.409 62.350,220.259 63.009 M232.856 61.917 C 232.838 62.202,233.305 64.027,233.425 64.142 C 233.488 64.201,233.483 63.989,233.415 63.670 C 233.249 62.899,232.869 61.707,232.856 61.917 M371.564 64.167 C 371.564 65.313,371.591 65.781,371.623 65.208 C 371.656 64.635,371.656 63.698,371.623 63.125 C 371.591 62.552,371.564 63.021,371.564 64.167 M140.046 63.167 C 140.097 63.396,140.227 64.021,140.334 64.555 C 140.441 65.089,140.563 65.493,140.605 65.451 C 140.702 65.353,140.209 62.984,140.064 62.851 C 140.003 62.796,139.995 62.938,140.046 63.167 M364.450 64.615 C 364.563 67.083,364.441 67.000,367.924 67.000 C 370.629 67.000,371.502 66.869,371.497 66.462 C 371.495 66.291,371.469 66.291,371.360 66.462 C 371.257 66.624,370.467 66.663,367.988 66.629 L 364.750 66.583 364.659 64.798 C 364.608 63.815,364.522 62.967,364.468 62.912 C 364.413 62.857,364.405 63.624,364.450 64.615 M146.000 63.917 C 145.892 64.435,145.842 64.897,145.888 64.943 C 145.933 64.989,146.059 64.602,146.167 64.083 C 146.274 63.565,146.325 63.103,146.279 63.057 C 146.233 63.011,146.108 63.398,146.000 63.917 M265.367 63.341 C 265.179 63.642,264.938 63.669,262.124 63.704 L 259.083 63.741 261.917 63.793 C 265.010 63.850,265.411 63.806,265.569 63.394 C 265.722 62.994,265.604 62.963,265.367 63.341 M226.607 64.282 C 226.441 64.448,226.481 64.865,226.652 64.759 C 226.736 64.707,226.843 64.759,226.889 64.874 C 226.936 64.989,226.980 64.919,226.987 64.718 C 227.001 64.338,226.791 64.098,226.607 64.282 M233.775 65.667 C 233.883 66.470,234.140 67.265,234.153 66.833 C 234.157 66.696,234.051 66.208,233.918 65.750 L 233.675 64.917 233.775 65.667 M219.513 66.013 C 219.270 67.144,219.401 67.275,219.667 66.167 C 219.779 65.698,219.832 65.277,219.785 65.230 C 219.738 65.182,219.615 65.535,219.513 66.013 M226.000 66.750 C 225.892 67.269,225.836 67.725,225.875 67.764 C 225.914 67.803,226.040 67.417,226.155 66.905 C 226.269 66.393,226.325 65.937,226.279 65.891 C 226.233 65.845,226.108 66.231,226.000 66.750 M145.360 66.783 C 145.050 68.183,144.958 68.753,145.059 68.657 C 145.190 68.534,145.692 66.136,145.605 66.049 C 145.568 66.012,145.458 66.342,145.360 66.783 M227.283 66.583 C 227.338 66.950,227.480 67.550,227.599 67.917 L 227.816 68.583 227.717 67.917 C 227.662 67.550,227.520 66.950,227.401 66.583 L 227.184 65.917 227.283 66.583 M140.937 67.167 C 140.995 67.579,141.108 68.067,141.189 68.250 C 141.284 68.467,141.298 68.321,141.229 67.833 C 141.172 67.421,141.058 66.933,140.978 66.750 C 140.883 66.533,140.869 66.679,140.937 67.167 M135.040 79.125 L 135.080 91.250 135.165 79.167 C 135.232 69.671,135.292 67.173,135.448 67.500 C 135.557 67.729,135.650 67.829,135.656 67.722 C 135.676 67.359,135.465 67.000,135.232 67.000 C 135.035 67.000,135.006 68.853,135.040 79.125 M150.768 67.264 C 150.587 67.736,150.682 67.928,150.886 67.500 C 151.041 67.173,151.102 69.671,151.168 79.167 L 151.253 91.250 151.293 79.125 C 151.327 68.853,151.298 67.000,151.101 67.000 C 150.973 67.000,150.823 67.119,150.768 67.264 M218.769 69.019 C 218.416 70.581,218.540 70.705,218.917 69.167 C 219.076 68.516,219.169 67.947,219.123 67.901 C 219.077 67.855,218.918 68.358,218.769 69.019 M234.450 68.417 C 234.504 68.783,234.607 69.233,234.680 69.417 L 234.812 69.750 234.810 69.417 C 234.809 69.233,234.705 68.783,234.580 68.417 L 234.353 67.750 234.450 68.417 M150.360 68.949 C 150.050 70.350,149.958 70.919,150.059 70.824 C 150.190 70.701,150.692 68.303,150.605 68.216 C 150.568 68.179,150.458 68.509,150.360 68.949 M332.327 68.847 C 332.828 69.025,333.316 69.144,333.411 69.111 C 333.580 69.053,331.834 68.488,331.558 68.512 C 331.480 68.519,331.826 68.670,332.327 68.847 M225.334 69.612 C 225.227 70.146,225.099 70.752,225.051 70.958 C 225.003 71.165,225.004 71.333,225.054 71.333 C 225.182 71.333,225.722 68.833,225.617 68.728 C 225.569 68.680,225.441 69.077,225.334 69.612 M359.083 68.916 C 359.646 69.181,360.282 69.267,359.833 69.017 C 359.696 68.941,359.358 68.834,359.083 68.779 L 358.583 68.680 359.083 68.916 M135.857 69.167 C 135.858 69.396,135.960 69.883,136.083 70.250 L 136.307 70.917 136.212 70.167 C 136.091 69.207,135.853 68.538,135.857 69.167 M227.885 69.208 C 227.933 69.415,228.060 70.021,228.167 70.555 C 228.275 71.089,228.402 71.487,228.450 71.439 C 228.555 71.333,228.016 68.833,227.887 68.833 C 227.838 68.833,227.837 69.002,227.885 69.208 M334.583 69.560 C 334.858 69.685,335.308 69.832,335.583 69.887 L 336.083 69.986 335.565 69.752 C 335.280 69.623,334.830 69.476,334.565 69.425 L 334.083 69.332 334.583 69.560 M360.667 69.404 C 360.667 69.498,362.388 70.000,362.461 69.928 C 362.522 69.867,361.034 69.333,360.804 69.333 C 360.728 69.333,360.667 69.365,360.667 69.404 M141.500 69.648 C 141.500 70.015,142.030 72.192,142.102 72.120 C 142.182 72.040,141.699 69.644,141.579 69.523 C 141.535 69.480,141.500 69.536,141.500 69.648 M144.500 70.583 C 144.392 71.102,144.342 71.564,144.388 71.610 C 144.433 71.656,144.559 71.269,144.667 70.750 C 144.774 70.231,144.825 69.769,144.779 69.724 C 144.733 69.678,144.608 70.065,144.500 70.583 M336.768 70.243 C 337.054 70.374,337.504 70.525,337.768 70.577 C 338.181 70.658,338.166 70.639,337.667 70.443 C 336.767 70.090,336.130 69.948,336.768 70.243 M363.268 70.248 C 363.554 70.377,364.004 70.527,364.268 70.583 L 364.750 70.683 364.250 70.452 C 363.975 70.325,363.525 70.174,363.250 70.117 L 362.750 70.014 363.268 70.248 M235.078 71.000 C 235.284 72.036,235.520 72.869,235.588 72.801 C 235.671 72.718,235.188 70.631,235.058 70.508 C 235.005 70.458,235.013 70.679,235.078 71.000 M181.569 73.583 C 181.569 75.233,181.594 75.886,181.624 75.033 C 181.655 74.181,181.654 72.831,181.624 72.033 C 181.593 71.236,181.569 71.933,181.569 73.583 M218.241 71.105 C 218.182 71.368,218.061 71.872,217.972 72.225 C 217.884 72.578,217.850 72.906,217.898 72.953 C 217.945 73.001,218.032 72.824,218.092 72.561 C 218.151 72.298,218.273 71.795,218.361 71.442 C 218.450 71.089,218.483 70.761,218.436 70.714 C 218.388 70.666,218.301 70.842,218.241 71.105 M338.750 70.901 C 339.025 71.022,339.475 71.166,339.750 71.220 L 340.250 71.320 339.750 71.099 C 339.475 70.978,339.025 70.834,338.750 70.780 L 338.250 70.680 338.750 70.901 M364.833 70.742 C 364.833 70.847,367.052 71.503,367.133 71.422 C 367.169 71.386,366.696 71.201,366.082 71.012 C 364.872 70.638,364.833 70.630,364.833 70.742 M341.000 71.653 C 341.137 71.731,341.512 71.841,341.833 71.896 L 342.417 71.997 341.833 71.761 C 341.156 71.487,340.578 71.412,341.000 71.653 M367.500 71.653 C 367.637 71.731,368.012 71.841,368.333 71.896 L 368.917 71.997 368.333 71.761 C 367.656 71.487,367.078 71.412,367.500 71.653 M224.593 72.843 C 224.443 73.502,224.353 74.075,224.394 74.116 C 224.435 74.157,224.591 73.650,224.741 72.991 C 224.891 72.331,224.980 71.758,224.939 71.717 C 224.899 71.677,224.743 72.183,224.593 72.843 M136.523 72.083 C 136.514 72.267,136.611 72.792,136.738 73.250 C 136.866 73.708,136.970 73.933,136.969 73.750 C 136.968 73.271,136.543 71.684,136.523 72.083 M149.599 72.321 C 149.545 72.603,149.457 73.058,149.403 73.333 C 149.350 73.608,149.345 73.833,149.392 73.833 C 149.511 73.833,149.880 71.991,149.780 71.892 C 149.735 71.846,149.654 72.040,149.599 72.321 M343.623 72.504 C 344.036 72.688,344.468 73.046,344.664 73.367 C 344.848 73.669,344.999 73.833,344.999 73.731 C 345.001 73.384,344.280 72.627,343.727 72.396 C 342.900 72.051,342.811 72.143,343.623 72.504 M370.000 72.445 C 370.321 72.583,370.756 72.856,370.968 73.052 C 371.262 73.326,371.327 73.344,371.244 73.129 C 371.141 72.860,369.894 72.152,369.572 72.180 C 369.487 72.188,369.679 72.307,370.000 72.445 M228.775 73.000 C 228.883 73.803,229.140 74.598,229.153 74.167 C 229.157 74.029,229.051 73.542,228.918 73.083 L 228.675 72.250 228.775 73.000 M142.167 72.648 C 142.167 73.015,142.697 75.192,142.769 75.120 C 142.849 75.040,142.366 72.644,142.246 72.523 C 142.202 72.480,142.167 72.536,142.167 72.648 M143.834 73.612 C 143.727 74.146,143.599 74.752,143.551 74.958 C 143.503 75.165,143.504 75.333,143.554 75.333 C 143.682 75.333,144.222 72.833,144.117 72.728 C 144.069 72.680,143.941 73.077,143.834 73.612 M351.051 73.235 C 351.308 73.472,351.602 73.667,351.704 73.667 C 351.919 73.667,351.926 73.673,351.167 73.181 L 350.583 72.803 351.051 73.235 M217.431 74.431 C 217.278 75.042,217.190 75.578,217.235 75.624 C 217.280 75.669,217.366 75.491,217.425 75.228 C 217.485 74.965,217.606 74.461,217.694 74.108 C 217.783 73.755,217.823 73.434,217.783 73.394 C 217.743 73.354,217.585 73.821,217.431 74.431 M325.917 73.923 C 326.192 74.049,326.529 74.149,326.667 74.146 C 326.804 74.142,326.692 74.037,326.417 73.911 C 326.142 73.785,325.804 73.684,325.667 73.688 C 325.529 73.691,325.642 73.797,325.917 73.923 M352.167 73.816 C 352.304 73.892,352.642 74.000,352.917 74.054 L 353.417 74.153 352.917 73.917 C 352.354 73.652,351.718 73.566,352.167 73.816 M235.864 74.083 C 235.861 74.267,235.958 74.717,236.079 75.083 C 236.200 75.450,236.300 75.600,236.303 75.417 C 236.306 75.233,236.209 74.783,236.088 74.417 C 235.967 74.050,235.866 73.900,235.864 74.083 M371.574 79.417 C 371.574 82.350,371.597 83.527,371.625 82.031 C 371.652 80.536,371.652 78.136,371.625 76.698 C 371.597 75.260,371.574 76.483,371.574 79.417 M328.320 74.678 C 328.817 74.855,329.252 74.970,329.287 74.935 C 329.365 74.857,327.847 74.328,327.595 74.346 C 327.497 74.352,327.823 74.502,328.320 74.678 M354.820 74.678 C 355.317 74.855,355.752 74.970,355.787 74.935 C 355.865 74.857,354.347 74.328,354.095 74.346 C 353.997 74.352,354.323 74.502,354.820 74.678 M148.844 75.844 C 148.734 76.406,148.676 76.898,148.715 76.937 C 148.754 76.976,148.882 76.555,149.000 76.000 C 149.118 75.445,149.176 74.954,149.130 74.907 C 149.083 74.861,148.955 75.283,148.844 75.844 M137.180 75.264 C 137.198 75.685,137.789 77.975,137.814 77.719 C 137.839 77.459,137.347 75.125,137.246 75.023 C 137.202 74.980,137.173 75.088,137.180 75.264 M330.083 75.236 C 330.358 75.359,330.771 75.508,331.000 75.569 L 331.417 75.679 331.000 75.446 C 330.771 75.318,330.358 75.168,330.083 75.113 L 329.583 75.014 330.083 75.236 M356.602 75.248 C 356.887 75.377,357.337 75.524,357.602 75.575 L 358.083 75.668 357.583 75.440 C 357.308 75.315,356.858 75.168,356.583 75.113 L 356.083 75.014 356.602 75.248 M223.833 76.083 C 223.726 76.602,223.670 77.058,223.709 77.098 C 223.748 77.137,223.874 76.750,223.988 76.238 C 224.103 75.726,224.159 75.270,224.113 75.224 C 224.067 75.178,223.941 75.565,223.833 76.083 M229.354 75.500 C 229.346 75.637,229.444 76.125,229.572 76.583 C 229.710 77.082,229.804 77.249,229.806 77.000 C 229.808 76.537,229.377 75.104,229.354 75.500 M142.935 76.000 C 143.089 76.868,143.510 76.804,143.486 75.917 L 143.477 75.583 143.339 75.917 C 143.208 76.235,143.193 76.231,143.017 75.833 C 142.849 75.455,142.841 75.471,142.935 76.000 M332.333 75.983 C 332.471 76.059,332.808 76.166,333.083 76.221 L 333.583 76.320 333.083 76.084 C 332.521 75.819,331.885 75.733,332.333 75.983 M358.667 75.904 C 358.667 75.998,360.388 76.500,360.461 76.428 C 360.522 76.367,359.034 75.833,358.804 75.833 C 358.728 75.833,358.667 75.865,358.667 75.904 M216.750 77.167 C 216.591 77.817,216.498 78.387,216.544 78.432 C 216.589 78.478,216.749 77.975,216.898 77.315 C 217.251 75.752,217.127 75.628,216.750 77.167 M236.500 76.646 C 236.500 76.980,237.039 79.017,237.108 78.947 C 237.144 78.912,237.053 78.365,236.907 77.734 C 236.650 76.625,236.500 76.225,236.500 76.646 M334.167 76.571 C 334.167 76.665,335.888 77.167,335.961 77.094 C 336.022 77.034,334.534 76.500,334.304 76.500 C 334.228 76.500,334.167 76.532,334.167 76.571 M360.667 76.572 C 360.667 76.654,362.398 77.173,362.609 77.154 C 362.792 77.137,361.149 76.530,360.875 76.513 C 360.760 76.506,360.667 76.532,360.667 76.572 M181.250 76.833 C 181.185 76.938,179.308 77.000,176.170 77.000 C 173.433 77.000,171.075 77.046,170.930 77.101 C 170.648 77.209,170.511 85.000,170.792 85.000 C 170.860 85.000,170.917 83.256,170.917 81.125 L 170.917 77.250 176.023 77.206 C 180.299 77.169,181.163 77.122,181.335 76.914 C 181.448 76.778,181.499 76.667,181.447 76.667 C 181.395 76.667,181.307 76.742,181.250 76.833 M284.792 81.542 C 284.816 84.040,284.855 87.208,284.880 88.583 C 284.905 89.958,284.943 87.915,284.963 84.042 C 284.983 80.169,284.944 77.000,284.875 77.000 C 284.806 77.000,284.769 79.044,284.792 81.542 M336.333 77.219 C 336.333 77.267,336.716 77.434,337.185 77.589 L 338.036 77.872 337.975 80.952 C 337.941 82.646,337.963 83.856,338.024 83.641 C 338.084 83.426,338.141 82.040,338.150 80.562 C 338.168 77.693,338.154 77.642,337.307 77.440 C 337.064 77.382,336.745 77.289,336.599 77.233 C 336.453 77.177,336.333 77.171,336.333 77.219 M362.833 77.242 C 362.833 77.287,363.190 77.428,363.625 77.555 L 364.417 77.787 364.417 80.895 C 364.417 82.685,364.471 83.791,364.546 83.504 C 364.890 82.173,364.609 77.766,364.167 77.564 C 363.653 77.330,362.833 77.132,362.833 77.242 M260.708 77.791 C 261.510 77.821,262.823 77.821,263.625 77.791 C 264.427 77.760,263.771 77.735,262.167 77.735 C 260.563 77.735,259.906 77.760,260.708 77.791 M258.724 78.091 C 258.574 78.481,258.736 78.527,258.966 78.159 C 259.095 77.953,259.106 77.833,258.996 77.833 C 258.901 77.833,258.778 77.949,258.724 78.091 M137.908 78.583 C 138.160 80.005,138.369 80.853,138.448 80.774 C 138.547 80.675,138.038 78.146,137.892 78.011 C 137.835 77.959,137.842 78.217,137.908 78.583 M148.167 78.945 C 148.060 79.479,147.933 80.085,147.885 80.292 C 147.837 80.498,147.838 80.667,147.887 80.667 C 148.016 80.667,148.555 78.167,148.450 78.061 C 148.402 78.013,148.275 78.411,148.167 78.945 M223.376 78.167 C 223.434 78.378,223.958 78.418,226.764 78.422 L 230.083 78.428 226.841 78.377 C 224.518 78.340,223.557 78.268,223.453 78.121 C 223.348 77.973,223.327 77.985,223.376 78.167 M216.000 80.167 C 215.888 80.635,215.834 81.057,215.882 81.104 C 215.929 81.151,216.051 80.799,216.154 80.321 C 216.397 79.189,216.266 79.058,216.000 80.167 M237.167 79.396 C 237.167 79.673,237.716 81.673,237.775 81.613 C 237.856 81.532,237.390 79.501,237.261 79.372 C 237.209 79.320,237.167 79.331,237.167 79.396 M324.033 80.200 C 323.818 80.415,323.769 85.734,323.975 86.470 C 324.035 86.683,324.057 85.417,324.026 83.656 C 323.980 81.108,324.014 80.427,324.192 80.314 C 324.567 80.077,330.394 80.132,330.667 80.375 C 330.866 80.552,330.868 80.540,330.680 80.292 C 330.403 79.925,324.391 79.843,324.033 80.200 M350.595 80.262 C 350.322 80.536,350.224 85.410,350.475 86.303 C 350.535 86.515,350.557 85.332,350.525 83.673 C 350.452 79.830,350.126 80.167,353.917 80.167 C 357.525 80.167,357.284 80.013,357.359 82.372 C 357.415 84.108,357.431 84.173,357.912 84.622 L 358.407 85.083 358.005 84.622 C 357.645 84.209,357.593 83.959,357.510 82.241 C 357.439 80.791,357.355 80.282,357.167 80.163 C 356.706 79.872,350.898 79.959,350.595 80.262 M330.860 82.141 C 330.832 83.788,331.088 84.703,331.634 84.913 C 331.817 84.983,331.774 84.874,331.504 84.588 C 331.146 84.206,331.087 83.953,330.993 82.370 L 330.887 80.583 330.860 82.141 M147.529 81.780 C 147.224 83.223,147.121 83.918,147.225 83.822 C 147.371 83.688,147.880 81.158,147.781 81.059 C 147.736 81.014,147.623 81.338,147.529 81.780 M138.551 81.542 C 138.599 81.748,138.727 82.354,138.834 82.888 C 138.941 83.423,139.069 83.820,139.117 83.772 C 139.222 83.667,138.682 81.167,138.554 81.167 C 138.504 81.167,138.503 81.335,138.551 81.542 M215.259 83.176 C 215.109 83.836,215.020 84.409,215.061 84.449 C 215.101 84.490,215.257 83.984,215.407 83.324 C 215.557 82.664,215.647 82.091,215.606 82.051 C 215.565 82.010,215.409 82.516,215.259 83.176 M237.856 82.083 C 237.838 82.368,238.305 84.194,238.425 84.308 C 238.488 84.368,238.483 84.156,238.415 83.837 C 238.249 83.066,237.869 81.873,237.856 82.083 M257.948 84.352 C 257.690 84.617,257.546 84.833,257.627 84.833 C 257.810 84.833,258.584 84.026,258.487 83.936 C 258.448 83.901,258.206 84.088,257.948 84.352 M146.766 85.313 C 146.494 86.508,146.439 86.950,146.579 86.810 C 146.699 86.690,147.182 84.293,147.102 84.213 C 147.064 84.175,146.912 84.670,146.766 85.313 M265.494 85.042 C 265.491 85.431,265.381 86.197,265.251 86.743 C 264.985 87.857,265.042 88.214,265.327 87.224 C 265.552 86.444,265.757 84.333,265.608 84.333 C 265.548 84.333,265.497 84.652,265.494 85.042 M221.601 84.764 C 221.546 84.909,221.506 85.152,221.513 85.305 C 221.521 85.464,221.598 85.387,221.694 85.125 L 221.861 84.667 226.761 84.667 L 231.662 84.667 231.852 85.423 C 231.957 85.839,232.074 86.148,232.112 86.110 C 232.150 86.072,232.094 85.694,231.988 85.270 L 231.794 84.500 226.748 84.500 C 222.301 84.500,221.690 84.531,221.601 84.764 M363.500 84.862 C 362.992 85.142,362.635 85.177,360.724 85.133 C 359.518 85.106,358.618 85.138,358.724 85.206 C 359.434 85.657,363.731 85.238,364.073 84.684 C 364.207 84.466,364.234 84.458,363.500 84.862 M336.667 85.024 C 336.433 85.118,335.321 85.169,334.137 85.138 C 332.964 85.108,332.133 85.145,332.270 85.221 C 332.664 85.441,336.782 85.286,337.025 85.042 C 337.268 84.798,337.227 84.796,336.667 85.024 M139.453 85.583 C 139.507 85.950,139.609 86.438,139.678 86.667 L 139.805 87.083 139.806 86.667 C 139.807 86.438,139.705 85.950,139.580 85.583 L 139.353 84.917 139.453 85.583 M238.775 85.833 C 238.883 86.637,239.140 87.432,239.153 87.000 C 239.157 86.862,239.051 86.375,238.918 85.917 L 238.675 85.083 238.775 85.833 M214.513 86.179 C 214.270 87.311,214.401 87.442,214.667 86.333 C 214.779 85.865,214.832 85.443,214.785 85.396 C 214.738 85.349,214.615 85.701,214.513 86.179 M344.708 86.394 C 344.597 86.977,344.467 87.596,344.418 87.769 C 344.369 87.942,344.438 87.850,344.572 87.564 C 344.803 87.072,345.118 85.333,344.976 85.333 C 344.939 85.333,344.819 85.811,344.708 86.394 M318.569 88.417 C 318.569 90.067,318.594 90.719,318.624 89.867 C 318.655 89.014,318.654 87.664,318.624 86.867 C 318.593 86.069,318.569 86.767,318.569 88.417 M221.000 87.167 C 220.888 87.635,220.833 88.055,220.879 88.101 C 220.925 88.147,221.054 87.802,221.167 87.333 C 221.279 86.865,221.333 86.445,221.288 86.399 C 221.242 86.353,221.112 86.698,221.000 87.167 M232.172 86.549 C 232.162 86.811,232.712 88.844,232.775 88.780 C 232.865 88.691,232.494 86.975,232.319 86.667 C 232.241 86.529,232.175 86.476,232.172 86.549 M370.963 87.504 C 370.817 87.960,370.763 88.293,370.844 88.243 C 371.006 88.144,371.393 86.838,371.292 86.736 C 371.257 86.701,371.109 87.047,370.963 87.504 M244.841 87.543 C 244.789 88.377,246.629 90.544,247.895 91.139 C 249.020 91.668,249.072 91.564,247.969 90.995 C 246.798 90.390,245.944 89.531,245.324 88.333 C 245.063 87.829,244.846 87.474,244.841 87.543 M350.928 87.833 C 350.988 88.063,351.104 88.321,351.185 88.408 C 351.423 88.663,351.350 88.298,351.070 87.833 L 350.819 87.417 350.928 87.833 M324.333 87.757 C 324.333 88.794,327.738 91.984,328.274 91.448 C 328.318 91.404,328.011 91.238,327.593 91.078 C 326.651 90.718,325.226 89.343,324.802 88.384 C 324.519 87.745,324.333 87.496,324.333 87.757 M140.046 88.333 C 140.097 88.563,140.227 89.187,140.334 89.722 C 140.441 90.256,140.563 90.659,140.605 90.618 C 140.702 90.520,140.209 88.151,140.064 88.018 C 140.003 87.962,139.995 88.104,140.046 88.333 M146.127 88.195 C 146.072 88.340,145.986 88.823,145.936 89.270 L 145.845 90.083 146.085 89.167 C 146.313 88.295,146.341 87.638,146.127 88.195 M213.769 89.185 C 213.416 90.748,213.540 90.872,213.917 89.333 C 214.076 88.683,214.169 88.113,214.123 88.068 C 214.077 88.022,213.918 88.525,213.769 89.185 M239.450 88.583 C 239.504 88.950,239.607 89.400,239.680 89.583 L 239.812 89.917 239.810 89.583 C 239.809 89.400,239.705 88.950,239.580 88.583 L 239.353 87.917 239.450 88.583 M264.496 88.674 C 264.024 89.601,262.937 90.613,261.967 91.030 C 261.521 91.222,261.186 91.408,261.221 91.444 C 261.629 91.851,264.442 89.551,264.803 88.514 C 265.054 87.796,264.905 87.873,264.496 88.674 M343.820 88.875 C 343.714 89.081,343.318 89.581,342.939 89.986 C 342.469 90.489,342.399 90.611,342.719 90.370 C 343.235 89.983,344.167 88.872,344.167 88.644 C 344.167 88.390,344.017 88.490,343.820 88.875 M370.500 88.625 C 370.500 89.019,368.829 90.612,368.017 90.992 C 367.550 91.211,367.197 91.419,367.232 91.454 C 367.384 91.607,368.883 90.746,369.487 90.160 C 370.262 89.408,370.755 88.699,370.606 88.550 C 370.548 88.492,370.500 88.526,370.500 88.625 M351.613 89.144 C 352.123 90.084,354.448 91.774,354.779 91.444 C 354.814 91.408,354.485 91.224,354.047 91.034 C 353.228 90.680,352.361 89.962,351.691 89.083 L 351.310 88.583 351.613 89.144 M232.911 89.500 C 233.133 90.610,233.356 91.367,233.437 91.285 C 233.526 91.196,233.026 89.136,232.882 89.000 C 232.834 88.954,232.847 89.179,232.911 89.500 M220.358 89.775 C 220.268 90.128,220.146 90.655,220.086 90.947 C 219.909 91.817,219.793 91.845,216.563 91.796 L 213.586 91.750 213.480 91.250 C 213.380 90.786,213.371 90.781,213.353 91.175 C 213.317 91.948,213.526 92.000,216.688 92.000 C 219.031 92.000,219.692 91.951,219.882 91.761 C 220.130 91.513,220.740 89.352,220.601 89.212 C 220.558 89.169,220.448 89.422,220.358 89.775 M341.333 91.083 C 340.921 91.304,340.630 91.488,340.688 91.492 C 340.901 91.508,341.981 90.999,342.082 90.836 C 342.220 90.612,342.203 90.617,341.333 91.083 M140.667 91.144 C 140.667 91.783,141.299 92.000,143.167 92.000 C 145.034 92.000,145.667 91.783,145.667 91.144 C 145.667 91.040,145.511 91.153,145.321 91.394 C 144.986 91.820,144.923 91.833,143.167 91.833 C 141.411 91.833,141.347 91.820,141.012 91.394 C 140.822 91.153,140.667 91.040,140.667 91.144 M292.013 91.357 C 291.992 91.789,291.661 91.833,288.436 91.833 C 286.243 91.833,285.335 91.775,285.166 91.625 C 284.968 91.448,284.966 91.460,285.153 91.708 C 285.714 92.449,292.416 92.053,292.112 91.297 C 292.055 91.155,292.022 91.176,292.013 91.357 M233.656 91.712 C 233.967 92.122,240.006 92.080,240.132 91.667 C 240.194 91.465,240.166 91.457,239.987 91.625 C 239.828 91.775,238.951 91.833,236.833 91.833 C 234.722 91.833,233.835 91.775,233.666 91.625 C 233.467 91.447,233.466 91.460,233.656 91.712 M249.333 91.710 C 249.920 92.001,260.069 92.004,260.667 91.715 C 261.033 91.537,260.993 91.527,260.333 91.631 C 259.344 91.788,250.818 91.785,249.750 91.627 C 249.023 91.520,248.970 91.530,249.333 91.710 M328.833 91.715 C 329.431 92.004,339.580 92.001,340.167 91.710 C 340.530 91.530,340.477 91.520,339.750 91.627 C 338.682 91.785,330.156 91.788,329.167 91.631 C 328.507 91.527,328.467 91.537,328.833 91.715 M355.333 91.708 C 355.641 91.862,357.124 91.917,361.000 91.917 C 364.876 91.917,366.359 91.862,366.667 91.708 C 367.037 91.522,367.001 91.513,366.333 91.624 C 365.921 91.693,363.521 91.750,361.000 91.750 C 358.479 91.750,356.079 91.693,355.667 91.624 C 354.999 91.513,354.963 91.522,355.333 91.708 M26.167 100.092 C 26.167 100.235,26.390 100.875,26.662 101.515 C 28.512 105.863,32.699 109.146,37.635 110.117 C 39.608 110.505,52.294 110.620,54.602 110.271 C 57.707 109.801,60.719 107.793,61.679 105.555 C 62.088 104.601,62.273 104.706,59.780 104.477 C 58.618 104.370,57.667 104.229,57.667 104.165 C 57.667 104.100,56.617 103.951,55.333 103.833 C 54.050 103.716,53.000 103.568,53.000 103.504 C 53.000 103.440,51.913 103.291,50.583 103.172 C 49.254 103.054,48.167 102.901,48.167 102.833 C 48.167 102.765,47.079 102.615,45.750 102.500 C 44.421 102.385,43.333 102.237,43.333 102.172 C 43.333 102.107,41.908 101.915,40.167 101.746 C 38.425 101.576,37.000 101.389,37.000 101.331 C 37.000 101.273,35.950 101.126,34.667 101.006 C 33.383 100.885,32.333 100.738,32.333 100.677 C 32.333 100.617,31.265 100.469,29.958 100.349 C 28.652 100.229,27.558 100.064,27.528 99.982 C 27.424 99.705,26.167 99.807,26.167 100.092 M76.167 106.879 C 76.167 107.798,79.523 109.791,81.715 110.173 C 82.976 110.392,98.196 110.322,98.708 110.094 C 99.328 109.818,98.917 109.702,96.583 109.494 C 95.254 109.376,94.167 109.227,94.167 109.163 C 94.167 109.099,93.117 108.948,91.833 108.827 C 90.550 108.707,89.500 108.557,89.500 108.494 C 89.500 108.431,88.431 108.283,87.125 108.165 C 85.819 108.047,84.712 107.895,84.667 107.828 C 84.621 107.760,83.515 107.606,82.208 107.485 C 80.902 107.365,79.833 107.216,79.833 107.156 C 79.833 107.095,79.252 106.996,78.542 106.934 C 77.831 106.873,77.006 106.779,76.708 106.726 C 76.296 106.653,76.167 106.689,76.167 106.879 " stroke="none" fill="#747474" fill-rule="evenodd"></path></g></svg>